<svg xmlns="http://www.w3.org/2000/svg" width="171" height="40" viewBox="0 0 171 40">
    <path fill="#FFF" fill-rule="evenodd" d="M163.186 20.881c-.344.358-.579.842-.704 1.454l4.118.006c-.093-.627-.314-1.116-.665-1.467-.35-.35-.79-.526-1.321-.527-.608 0-1.085.178-1.428.534zm-1.182 8.083a6.187 6.187 0 0 1-2.057-1.227 5.392 5.392 0 0 1-1.331-1.873 5.921 5.921 0 0 1-.465-2.374c.001-.846.158-1.63.472-2.352a5.656 5.656 0 0 1 1.313-1.88 6.018 6.018 0 0 1 2.014-1.244c.78-.298 1.638-.447 2.574-.446.936.002 1.767.138 2.492.409.725.27 1.36.64 1.905 1.107a5.52 5.52 0 0 1 1.611 2.365c.342.949.497 1.977.464 3.086l-8.518-.012c.124.657.377 1.168.759 1.533.381.365.907.548 1.578.55.78 0 1.335-.276 1.663-.83l4.282.005c-.126.51-.388 1-.786 1.465a5.823 5.823 0 0 1-1.488 1.224 5.914 5.914 0 0 1-1.744.72 8.992 8.992 0 0 1-2.071.215c-.983-.001-1.872-.148-2.667-.44zm-13.068.016a6.307 6.307 0 0 1-2.069-1.239 5.388 5.388 0 0 1-1.33-1.872 5.862 5.862 0 0 1-.465-2.353c.001-.846.158-1.63.471-2.351a5.495 5.495 0 0 1 1.337-1.88 6.21 6.21 0 0 1 2.072-1.245c.804-.298 1.697-.446 2.68-.445.842.001 1.61.112 2.305.332a5.69 5.69 0 0 1 1.8.921c.506.394.915.865 1.226 1.413.311.547.505 1.15.583 1.805l-4.26-.005c-.123-.51-.317-.901-.582-1.171-.265-.27-.64-.406-1.123-.407-.686 0-1.194.269-1.522.808-.329.54-.493 1.283-.495 2.231-.001.933.17 1.667.512 2.2.342.533.857.8 1.543.8.546 0 .956-.163 1.23-.49.273-.328.441-.813.504-1.455l4.26.006a4.305 4.305 0 0 1-.437 1.914 4.673 4.673 0 0 1-1.219 1.54c-.523.438-1.155.78-1.897 1.026-.74.247-1.556.37-2.445.37-.983-.002-1.876-.153-2.679-.453zm-8.655-9.387c.485-.699 1.02-1.194 1.605-1.485.586-.291 1.26-.436 2.025-.435.327 0 .57.037.725.11l-.005 3.523h-.094c-1.31-.206-2.324-.043-3.042.488-.719.531-1.079 1.432-1.08 2.7l-.007 4.573-4.423-.005.016-11.159 4.212.006-.002 1.684h.07zm-10.096 8.017h-.07a4.696 4.696 0 0 1-1.582 1.332c-.6.306-1.315.458-2.141.457-.718 0-1.342-.107-1.872-.32a3.574 3.574 0 0 1-1.32-.887 3.757 3.757 0 0 1-.794-1.358 5.39 5.39 0 0 1-.267-1.75l.01-7.2 4.423.007-.009 6.214c-.002 1.181.528 1.772 1.589 1.774.577 0 1.026-.174 1.346-.524.32-.35.48-.83.482-1.443l.008-6.017 4.423.006-.016 11.159-4.212-.006.002-1.444zm-14.06-1.845c.344-.576.517-1.338.518-2.286.002-.948-.169-1.71-.511-2.287-.342-.577-.857-.865-1.543-.866-.687-.001-1.194.286-1.522.862-.329.576-.494 1.338-.495 2.286-.002.948.161 1.71.488 2.287.327.576.833.865 1.52.866.686 0 1.201-.287 1.545-.862zm-4.205 3.167c-.802-.3-1.488-.713-2.057-1.24a5.463 5.463 0 0 1-1.32-1.872 5.867 5.867 0 0 1-.464-2.352c.001-.846.159-1.63.472-2.352a5.578 5.578 0 0 1 1.324-1.88 6.08 6.08 0 0 1 2.061-1.244c.804-.298 1.705-.446 2.704-.445.998.001 1.898.152 2.702.452.802.3 1.485.717 2.045 1.25.561.533.993 1.16 1.296 1.883.303.723.454 1.507.453 2.353a5.993 5.993 0 0 1-.46 2.351 5.401 5.401 0 0 1-1.301 1.87c-.562.524-1.246.935-2.05 1.233-.803.298-1.704.446-2.703.445-.998-.002-1.899-.152-2.702-.452zm-14.834.123c-.928-.22-1.738-.553-2.432-1a5.013 5.013 0 0 1-1.635-1.675c-.397-.672-.603-1.46-.617-2.364l5.007.007c.078.627.362 1.09.853 1.39.49.3 1.142.45 1.953.451.234 0 .48-.021.737-.064.257-.044.488-.116.69-.219.203-.101.371-.236.504-.404a.94.94 0 0 0 .2-.6c0-.234-.07-.431-.21-.592-.14-.16-.343-.3-.608-.416a6.533 6.533 0 0 0-.994-.33 49.754 49.754 0 0 0-1.368-.33 34.176 34.176 0 0 1-2.152-.571 8.835 8.835 0 0 1-1.999-.867 4.654 4.654 0 0 1-1.472-1.37c-.382-.555-.572-1.248-.57-2.079 0-.89.185-1.648.553-2.275a4.437 4.437 0 0 1 1.488-1.53c.624-.392 1.358-.68 2.2-.86a12.585 12.585 0 0 1 2.669-.27c.857 0 1.688.09 2.49.265a6.765 6.765 0 0 1 2.14.845 4.546 4.546 0 0 1 1.496 1.49c.374.606.568 1.332.582 2.178l-4.844-.007a1.599 1.599 0 0 0-.618-1.018c-.335-.255-.838-.384-1.509-.385-.546 0-.987.101-1.322.305-.336.204-.504.466-.505.787 0 .233.086.423.257.57.171.145.425.273.76.383.335.11.748.212 1.24.308a44.35 44.35 0 0 1 1.672.363 21.34 21.34 0 0 1 2.059.583c.67.227 1.27.53 1.8.91s.954.85 1.273 1.413c.319.562.478 1.259.477 2.09-.002.86-.194 1.615-.577 2.264a4.995 4.995 0 0 1-1.558 1.628c-.656.436-1.421.767-2.295.992-.874.225-1.802.337-2.785.336a13.203 13.203 0 0 1-3.03-.332zm-13.545-9.689c.485-.612 1.035-1.078 1.652-1.398.617-.32 1.346-.48 2.189-.478 1.388.001 2.432.397 3.133 1.185.701.789 1.05 1.825 1.049 3.108l-.01 7.22-4.423-.005.009-6.214c0-.583-.131-1.05-.396-1.4-.265-.351-.686-.527-1.263-.528-.561 0-1.002.2-1.322.6-.321.401-.482.908-.483 1.52l-.008 6.017-4.423-.006.016-11.158 4.212.005-.002 1.532h.07zM73.143 25.71c.344-.576.517-1.338.519-2.286 0-.948-.17-1.71-.512-2.287-.342-.577-.857-.865-1.543-.866-.686-.001-1.194.286-1.522.862-.329.576-.494 1.337-.495 2.286-.001.947.161 1.71.488 2.287.327.576.833.865 1.52.866.686 0 1.201-.287 1.545-.862zm-4.205 3.166c-.802-.3-1.488-.712-2.057-1.238a5.461 5.461 0 0 1-1.32-1.873 5.866 5.866 0 0 1-.463-2.352c0-.846.158-1.63.471-2.352a5.576 5.576 0 0 1 1.325-1.88 6.082 6.082 0 0 1 2.06-1.244c.804-.298 1.705-.446 2.704-.445.998.001 1.899.152 2.702.452.802.3 1.484.717 2.045 1.25.561.533.993 1.16 1.296 1.883.303.722.454 1.507.453 2.353a5.996 5.996 0 0 1-.46 2.351 5.398 5.398 0 0 1-1.301 1.869c-.562.524-1.245.936-2.05 1.233-.803.299-1.704.447-2.703.446-.998-.002-1.898-.152-2.702-.453zm-8.631-9.386c.484-.7 1.02-1.195 1.605-1.486.585-.29 1.26-.436 2.024-.435.328 0 .57.037.725.11l-.005 3.523h-.093c-1.31-.206-2.324-.043-3.043.488-.718.532-1.078 1.432-1.08 2.7l-.007 4.574-4.422-.006.016-11.158 4.212.005-.002 1.685h.07zm-5.87-1.693l-.017 11.159-4.422-.006.016-11.158 4.422.005zm.006-4.485l-.004 3.129-4.423-.006.005-3.128 4.422.005zM24.017 30.088c5.174.007 7.385-3.001 7.39-6.331.008-6.169-8.474-5.556-8.471-7.992 0-.745.484-1.209 1.32-1.208 1.048.002 1.51.895 1.508 1.79v.622l5.547.008.001-1.085c.005-3.326-2.334-5.974-7.05-5.98-5.249-.007-7.359 2.89-7.364 6.218-.008 6.171 8.48 5.813 8.477 8.016-.001.776-.49 1.235-1.485 1.233-1.078 0-1.642-.748-1.64-1.837v-.439l-5.55-.008v1.01c-.005 3.333 2.364 5.976 7.317 5.983zm-15.421-8.85l-.005 2.949c.748.254 1.655.355 1.654 1.176l-.005 4.116 5.498.044.004-3.149c.003-2.148-.542-3.152-1.95-3.716 1.345-.37 1.957-1.394 1.96-3.213l.005-3.68-5.498-.008-.006 4.352c-.001.65-.909.885-1.657 1.13zm1.698-10.949l-.006 4.329 5.463.008.006-4.337h-5.463zM20 0c11.045 0 20 8.954 20 20s-8.955 20-20 20S0 31.046 0 20 8.954 0 20 0z"/>
</svg>
